<svg width="25" height="24" viewBox="0 0 25 24" fill="none" xmlns="http://www.w3.org/2000/svg">
<path fill-rule="evenodd" clip-rule="evenodd" d="M1.9032 12.0001C1.9032 9.18967 3.01964 6.49434 5.00693 4.50705C6.99421 2.51977 9.68955 1.40332 12.5 1.40332C15.3104 1.40332 18.0058 2.51977 19.9931 4.50705C21.9804 6.49434 23.0968 9.18967 23.0968 12.0001C23.0968 14.8106 21.9804 17.5059 19.9931 19.4932C18.0058 21.4805 15.3104 22.5969 12.5 22.5969C9.68955 22.5969 6.99421 21.4805 5.00693 19.4932C3.01964 17.5059 1.9032 14.8106 1.9032 12.0001ZM12.5 2.92332C10.0927 2.92332 7.78396 3.87962 6.08173 5.58185C4.3795 7.28408 3.4232 9.5928 3.4232 12.0001C3.4232 14.4074 4.3795 16.7162 6.08173 18.4184C7.78396 20.1206 10.0927 21.0769 12.5 21.0769C14.9073 21.0769 17.216 20.1206 18.9183 18.4184C20.6205 16.7162 21.5768 14.4074 21.5768 12.0001C21.5768 9.5928 20.6205 7.28408 18.9183 5.58185C17.216 3.87962 14.9073 2.92332 12.5 2.92332ZM16.2664 8.23532C16.4164 8.38534 16.5006 8.58879 16.5006 8.80092C16.5006 9.01305 16.4164 9.2165 16.2664 9.36652L13.6312 12.0001L16.2664 14.6337C16.4166 14.7839 16.501 14.9877 16.501 15.2001C16.501 15.4126 16.4166 15.6163 16.2664 15.7665C16.1162 15.9167 15.9124 16.0011 15.7 16.0011C15.4876 16.0011 15.2838 15.9167 15.1336 15.7665L12.5 13.1313L9.8664 15.7665C9.79202 15.8409 9.70371 15.8999 9.60653 15.9402C9.50935 15.9804 9.40519 16.0011 9.3 16.0011C9.19481 16.0011 9.09065 15.9804 8.99346 15.9402C8.89628 15.8999 8.80798 15.8409 8.7336 15.7665C8.65922 15.6921 8.60021 15.6038 8.55996 15.5067C8.51971 15.4095 8.49899 15.3053 8.49899 15.2001C8.49899 15.0949 8.51971 14.9908 8.55996 14.8936C8.60021 14.7964 8.65922 14.7081 8.7336 14.6337L11.3688 12.0001L8.7336 9.36652C8.58338 9.2163 8.49899 9.01256 8.49899 8.80012C8.49899 8.58768 8.58338 8.38394 8.7336 8.23372C8.88382 8.0835 9.08756 7.99911 9.3 7.99911C9.51244 7.99911 9.71618 8.0835 9.8664 8.23372L12.5 10.8689L15.1336 8.23372C15.2079 8.15922 15.2962 8.10011 15.3934 8.05978C15.4906 8.01945 15.5948 7.99869 15.7 7.99869C15.8052 7.99869 15.9094 8.01945 16.0066 8.05978C16.1038 8.10011 16.1921 8.16082 16.2664 8.23532Z" fill="#E46363"/>
</svg>
